<svg width="88" height="27" viewBox="0 0 88 27" fill="none" xmlns="http://www.w3.org/2000/svg">
<g clip-path="url(#clip0_68_11)">
<path d="M26.8468 4.99475L30.4732 4.99016L33.3827 15.6955C33.3827 15.6955 33.6984 16.9306 33.8294 17.5375C33.9589 16.9327 34.2714 15.6707 34.2714 15.6707L37.233 4.98162L40.7827 4.97713L43.7714 15.6587C43.7714 15.6587 44.0871 16.9174 44.2181 17.5244C44.3476 16.9195 44.6601 15.6812 44.6601 15.6812L47.5426 4.96858L51.1689 4.96399L46.1543 21.9302L42.4488 21.9349L39.0163 9.63195L35.6149 21.9436L31.9094 21.9482L26.8468 4.99475Z" fill="white"/>
<path d="M56.5562 9.8991L53.2695 9.90326L53.2847 21.9213L56.5714 21.9171L56.5562 9.8991Z" fill="white"/>
<path d="M68.8006 21.9016L68.7919 14.9725C68.7899 13.3979 67.979 12.4054 66.1531 12.4077C64.4319 12.4099 63.1542 13.7916 63.1567 15.8025L63.1644 21.9087L59.8777 21.9129L59.8625 9.89493L63.1492 9.89077L63.1517 11.8281C64.1152 10.4468 65.6541 9.54846 67.5311 9.54609C70.2968 9.54259 72.0738 11.2122 72.077 13.7068L72.0873 21.8951L68.8006 21.8993L68.8006 21.9016Z" fill="white"/>
<path d="M75.0186 4.93381L78.3052 4.92965L78.3161 13.5069L82.252 9.86661L86.3227 9.86146L81.6062 14.1548L86.9661 21.8763L83.1815 21.8811L79.3131 16.2659L78.3233 17.1635L78.3293 21.8872L75.0426 21.8914L75.0211 4.9338L75.0186 4.93381Z" fill="white"/>
<path d="M52.8248 3.7217L54.1108 4.91286L52.8278 6.10727L54.3491 7.51393L57.1473 4.90902L54.3425 2.31119L52.8248 3.7217Z" fill="white"/>
<path d="M8.10498 1.0133L0.776637 7.83547L6.99211 13.5923L0.791222 19.3673L8.13679 26.171L21.6686 13.5738L8.10498 1.0133Z" fill="#FF4F12"/>
</g>
<defs>
<clipPath id="clip0_68_11">
<rect width="87" height="26" fill="white" transform="translate(0.338806 0.625153) rotate(-0.0724631)"/>
</clipPath>
</defs>
</svg>
 